<svg class="plot-d6a7b5" fill="currentColor" font-family="system-ui, sans-serif" font-size="10" text-anchor="middle" width="1000" height="500" viewBox="0 0 1000 500" xmlns="http://www.w3.org/2000/svg" xmlns:xlink="http://www.w3.org/1999/xlink"><style>:where(.plot-d6a7b5) {
  --plot-background: white;
  display: block;
  height: auto;
  height: intrinsic;
  max-width: 100%;
}
:where(.plot-d6a7b5 text),
:where(.plot-d6a7b5 tspan) {
  white-space: pre;
}</style><g aria-label="y-axis tick" aria-hidden="true" fill="none" stroke="currentColor" transform="translate(0,8)"><path transform="translate(300,30)" d="M0,0L-6,0"/><path transform="translate(300,48)" d="M0,0L-6,0"/><path transform="translate(300,66)" d="M0,0L-6,0"/><path transform="translate(300,84)" d="M0,0L-6,0"/><path transform="translate(300,102)" d="M0,0L-6,0"/><path transform="translate(300,120)" d="M0,0L-6,0"/><path transform="translate(300,138)" d="M0,0L-6,0"/><path transform="translate(300,156)" d="M0,0L-6,0"/><path transform="translate(300,174)" d="M0,0L-6,0"/><path transform="translate(300,192)" d="M0,0L-6,0"/><path transform="translate(300,210)" d="M0,0L-6,0"/><path transform="translate(300,228)" d="M0,0L-6,0"/><path transform="translate(300,246)" d="M0,0L-6,0"/><path transform="translate(300,264)" d="M0,0L-6,0"/><path transform="translate(300,282)" d="M0,0L-6,0"/><path transform="translate(300,300)" d="M0,0L-6,0"/><path transform="translate(300,318)" d="M0,0L-6,0"/><path transform="translate(300,336)" d="M0,0L-6,0"/><path transform="translate(300,354)" d="M0,0L-6,0"/><path transform="translate(300,372)" d="M0,0L-6,0"/><path transform="translate(300,390)" d="M0,0L-6,0"/><path transform="translate(300,408)" d="M0,0L-6,0"/><path transform="translate(300,426)" d="M0,0L-6,0"/><path transform="translate(300,444)" d="M0,0L-6,0"/></g><g aria-label="y-axis tick label" text-anchor="end" transform="translate(-9,8)"><text y="0.32em" transform="translate(300,30)">Proyecto de Aplicaciones Web</text><text y="0.32em" transform="translate(300,48)">Protocolos de Comunicación</text><text y="0.32em" transform="translate(300,66)">Economía para Ingenieros</text><text y="0.32em" transform="translate(300,84)">Seguridad Ocupacional y Ambiental</text><text y="0.32em" transform="translate(300,102)">Programación de Objetos Distribuidos</text><text y="0.32em" transform="translate(300,120)">Ingenieria del Software II</text><text y="0.32em" transform="translate(300,138)">Métodos Numéricos Avanzados</text><text y="0.32em" transform="translate(300,156)">Derecho para Ingenieros</text><text y="0.32em" transform="translate(300,174)">Base de Datos II</text><text y="0.32em" transform="translate(300,192)">Ética en los Negocios</text><text y="0.32em" transform="translate(300,210)">Sistemas de Inteligencia Artificial</text><text y="0.32em" transform="translate(300,228)">Cloud Computing</text><text y="0.32em" transform="translate(300,246)">Introducción a la Programación de Videojuegos</text><text y="0.32em" transform="translate(300,264)">Gestión de Proyectos Informáticos</text><text y="0.32em" transform="translate(300,282)">Procesamiento del Lenguaje Natural</text><text y="0.32em" transform="translate(300,300)">Proyecto Final</text><text y="0.32em" transform="translate(300,318)">Big Data</text><text y="0.32em" transform="translate(300,336)">Redes de Información</text><text y="0.32em" transform="translate(300,354)">OLAP y Explotación de Datos</text><text y="0.32em" transform="translate(300,372)">Aprendizaje Automático (Machine Learning)</text><text y="0.32em" transform="translate(300,390)">Criptografía y Seguridad</text><text y="0.32em" transform="translate(300,408)">Visualización de Información</text><text y="0.32em" transform="translate(300,426)">Formación General III</text><text y="0.32em" transform="translate(300,444)">Internet de las Cosas (IoT)</text></g><g aria-label="y-axis label" transform="translate(-297,0)"><text y="0.71em" transform="translate(300,245) rotate(-90)">Materia</text></g><g aria-label="x-grid" aria-hidden="true" stroke="currentColor" stroke-opacity="0.1"><line x1="300" x2="300" y1="20" y2="470"/><line x1="411.11111111111114" x2="411.11111111111114" y1="20" y2="470"/><line x1="522.2222222222223" x2="522.2222222222223" y1="20" y2="470"/><line x1="633.3333333333333" x2="633.3333333333333" y1="20" y2="470"/><line x1="744.4444444444445" x2="744.4444444444445" y1="20" y2="470"/><line x1="855.5555555555555" x2="855.5555555555555" y1="20" y2="470"/><line x1="966.6666666666666" x2="966.6666666666666" y1="20" y2="470"/></g><g aria-label="x-axis tick" aria-hidden="true" fill="none" stroke="currentColor"><path transform="translate(300,470)" d="M0,0L0,6"/><path transform="translate(411.11111111111114,470)" d="M0,0L0,6"/><path transform="translate(522.2222222222223,470)" d="M0,0L0,6"/><path transform="translate(633.3333333333333,470)" d="M0,0L0,6"/><path transform="translate(744.4444444444445,470)" d="M0,0L0,6"/><path transform="translate(855.5555555555555,470)" d="M0,0L0,6"/><path transform="translate(966.6666666666666,470)" d="M0,0L0,6"/></g><g aria-label="x-axis tick label" font-variant="tabular-nums" transform="translate(0,9)"><text y="0.71em" transform="translate(300,470)">0</text><text y="0.71em" transform="translate(411.11111111111114,470)">50</text><text y="0.71em" transform="translate(522.2222222222223,470)">100</text><text y="0.71em" transform="translate(633.3333333333333,470)">150</text><text y="0.71em" transform="translate(744.4444444444445,470)">200</text><text y="0.71em" transform="translate(855.5555555555555,470)">250</text><text y="0.71em" transform="translate(966.6666666666666,470)">300</text></g><g aria-label="x-axis label" text-anchor="end" transform="translate(17,27)"><text transform="translate(980,470)">Ritmo Cardíaco →</text></g><g aria-label="bar"><rect x="300" width="186.56565656565652" y="30" height="16" fill="#4269d0"><title>avg: 83.95</title></rect><rect x="486.5656565656565" width="291.0101010101011" y="30" height="16" fill="#efb118"><title>max: 130.95</title></rect><rect x="777.5757575757576" width="125.15151515151513" y="30" height="16" fill="#ff725c"><title>min: 56.32</title></rect><rect x="300" width="175.15151515151513" y="48" height="16" fill="#4269d0"><title>avg: 78.82</title></rect><rect x="475.1515151515151" width="265.8585858585858" y="48" height="16" fill="#efb118"><title>max: 119.64</title></rect><rect x="741.0101010101009" width="125.30303030303025" y="48" height="16" fill="#ff725c"><title>min: 56.39</title></rect><rect x="300" width="172.72727272727275" y="66" height="16" fill="#4269d0"><title>avg: 77.73</title></rect><rect x="472.72727272727275" width="262.32323232323233" y="66" height="16" fill="#efb118"><title>max: 118.05</title></rect><rect x="735.0505050505051" width="127.07070707070704" y="66" height="16" fill="#ff725c"><title>min: 57.18</title></rect><rect x="300" width="174.3434343434343" y="84" height="16" fill="#4269d0"><title>avg: 78.45</title></rect><rect x="474.3434343434343" width="270.30303030303037" y="84" height="16" fill="#efb118"><title>max: 121.64</title></rect><rect x="744.6464646464647" width="125.15151515151513" y="84" height="16" fill="#ff725c"><title>min: 56.32</title></rect><rect x="300" width="177.66666666666669" y="102" height="16" fill="#4269d0"><title>avg: 79.95</title></rect><rect x="477.6666666666667" width="286.3333333333333" y="102" height="16" fill="#efb118"><title>max: 128.85</title></rect><rect x="764" width="128.33333333333326" y="102" height="16" fill="#ff725c"><title>min: 57.75</title></rect><rect x="300" width="178.24561403508773" y="120" height="16" fill="#4269d0"><title>avg: 80.21</title></rect><rect x="478.2456140350877" width="296.374269005848" y="120" height="16" fill="#efb118"><title>max: 133.37</title></rect><rect x="774.6198830409357" width="126.66666666666663" y="120" height="16" fill="#ff725c"><title>min: 57.00</title></rect><rect x="300" width="194.39153439153438" y="138" height="16" fill="#4269d0"><title>avg: 87.48</title></rect><rect x="494.3915343915344" width="332.1693121693123" y="138" height="16" fill="#efb118"><title>max: 149.48</title></rect><rect x="826.5608465608467" width="127.51322751322743" y="138" height="16" fill="#ff725c"><title>min: 57.38</title></rect><rect x="300" width="194.39153439153438" y="156" height="16" fill="#4269d0"><title>avg: 87.48</title></rect><rect x="494.3915343915344" width="332.1693121693123" y="156" height="16" fill="#efb118"><title>max: 149.48</title></rect><rect x="826.5608465608467" width="127.51322751322743" y="156" height="16" fill="#ff725c"><title>min: 57.38</title></rect><rect x="300" width="192.22222222222223" y="174" height="16" fill="#4269d0"><title>avg: 86.50</title></rect><rect x="492.22222222222223" width="327.2839506172839" y="174" height="16" fill="#efb118"><title>max: 147.28</title></rect><rect x="819.5061728395061" width="125.80246913580265" y="174" height="16" fill="#ff725c"><title>min: 56.61</title></rect><rect x="300" width="168.58585858585855" y="192" height="16" fill="#4269d0"><title>avg: 75.86</title></rect><rect x="468.58585858585855" width="326.86868686868695" y="192" height="16" fill="#efb118"><title>max: 147.09</title></rect><rect x="795.4545454545455" width="123.93939393939377" y="192" height="16" fill="#ff725c"><title>min: 55.77</title></rect><rect x="300" width="168.16537467700255" y="210" height="16" fill="#4269d0"><title>avg: 75.67</title></rect><rect x="468.16537467700255" width="327.5968992248063" y="210" height="16" fill="#efb118"><title>max: 147.42</title></rect><rect x="795.7622739018088" width="124.59948320413423" y="210" height="16" fill="#ff725c"><title>min: 56.07</title></rect><rect x="300" width="184.64646464646466" y="228" height="16" fill="#4269d0"><title>avg: 83.09</title></rect><rect x="484.64646464646466" width="349.49494949494954" y="228" height="16" fill="#efb118"><title>max: 157.27</title></rect><rect x="834.1414141414142" width="123.93939393939388" y="228" height="16" fill="#ff725c"><title>min: 55.77</title></rect><rect x="300" width="183.43434343434342" y="246" height="16" fill="#4269d0"><title>avg: 82.55</title></rect><rect x="483.4343434343434" width="344.5454545454545" y="246" height="16" fill="#efb118"><title>max: 155.05</title></rect><rect x="827.9797979797979" width="124.04040404040404" y="246" height="16" fill="#ff725c"><title>min: 55.82</title></rect><rect x="300" width="176.1904761904762" y="264" height="16" fill="#4269d0"><title>avg: 79.29</title></rect><rect x="476.1904761904762" width="342.2222222222221" y="264" height="16" fill="#efb118"><title>max: 154.00</title></rect><rect x="818.4126984126983" width="124.1269841269841" y="264" height="16" fill="#ff725c"><title>min: 55.86</title></rect><rect x="300" width="176.1904761904762" y="282" height="16" fill="#4269d0"><title>avg: 79.29</title></rect><rect x="476.1904761904762" width="342.2222222222221" y="282" height="16" fill="#efb118"><title>max: 154.00</title></rect><rect x="818.4126984126983" width="124.1269841269841" y="282" height="16" fill="#ff725c"><title>min: 55.86</title></rect><rect x="300" width="185.50264550264552" y="300" height="16" fill="#4269d0"><title>avg: 83.48</title></rect><rect x="485.5026455026455" width="312.2751322751322" y="300" height="16" fill="#efb118"><title>max: 140.52</title></rect><rect x="797.7777777777777" width="132.48677248677245" y="300" height="16" fill="#ff725c"><title>min: 59.62</title></rect><rect x="300" width="183.1746031746032" y="318" height="16" fill="#4269d0"><title>avg: 82.43</title></rect><rect x="483.1746031746032" width="324.12698412698404" y="318" height="16" fill="#efb118"><title>max: 145.86</title></rect><rect x="807.3015873015872" width="125.39682539682553" y="318" height="16" fill="#ff725c"><title>min: 56.43</title></rect><rect x="300" width="171.5447154471545" y="336" height="16" fill="#4269d0"><title>avg: 77.20</title></rect><rect x="471.5447154471545" width="304.39024390243895" y="336" height="16" fill="#efb118"><title>max: 136.98</title></rect><rect x="775.9349593495934" width="126.23306233062328" y="336" height="16" fill="#ff725c"><title>min: 56.80</title></rect><rect x="300" width="179.0643274853801" y="354" height="16" fill="#4269d0"><title>avg: 80.58</title></rect><rect x="479.0643274853801" width="323.7426900584795" y="354" height="16" fill="#efb118"><title>max: 145.68</title></rect><rect x="802.8070175438596" width="126.31578947368428" y="354" height="16" fill="#ff725c"><title>min: 56.84</title></rect><rect x="300" width="179.0643274853801" y="372" height="16" fill="#4269d0"><title>avg: 80.58</title></rect><rect x="479.0643274853801" width="323.7426900584795" y="372" height="16" fill="#efb118"><title>max: 145.68</title></rect><rect x="802.8070175438596" width="126.31578947368428" y="372" height="16" fill="#ff725c"><title>min: 56.84</title></rect><rect x="300" width="173.88888888888886" y="390" height="16" fill="#4269d0"><title>avg: 78.25</title></rect><rect x="473.88888888888886" width="277.77777777777777" y="390" height="16" fill="#efb118"><title>max: 125.00</title></rect><rect x="751.6666666666666" width="132.77777777777783" y="390" height="16" fill="#ff725c"><title>min: 59.75</title></rect><rect x="300" width="202.22222222222217" y="408" height="16" fill="#4269d0"><title>avg: 91.00</title></rect><rect x="502.2222222222222" width="328.8888888888889" y="408" height="16" fill="#efb118"><title>max: 148.00</title></rect><rect x="831.1111111111111" width="126.66666666666663" y="408" height="16" fill="#ff725c"><title>min: 57.00</title></rect><rect x="300" width="202.22222222222217" y="426" height="16" fill="#4269d0"><title>avg: 91.00</title></rect><rect x="502.2222222222222" width="328.8888888888889" y="426" height="16" fill="#efb118"><title>max: 148.00</title></rect><rect x="831.1111111111111" width="126.66666666666663" y="426" height="16" fill="#ff725c"><title>min: 57.00</title></rect><rect x="300" width="168.8888888888889" y="444" height="16" fill="#4269d0"><title>avg: 76.00</title></rect><rect x="468.8888888888889" width="377.7777777777778" y="444" height="16" fill="#efb118"><title>max: 170.00</title></rect><rect x="846.6666666666667" width="133.33333333333326" y="444" height="16" fill="#ff725c"><title>min: 60.00</title></rect></g></svg>